<?xml version="1.0" standalone="no"?>
<!DOCTYPE svg PUBLIC "-//W3C//DTD SVG 1.1//EN" 
    "http://www.w3.org/Graphics/SVG/1.1/DTD/svg11.dtd">
<svg width="320px" height="320px"
    xmlns="http://www.w3.org/2000/svg" version="1.1" viewBox="0 0 320 320">
  <g fill="none" stroke="black" stroke-width="2px" stroke-linecap="square">
    <path d="M1 1 L7 7 L1 13" />
    <path d="M7 14 L1 20" />
    <path d="M1 22 L7 28 L14 21 L21 14 L28 21" />
    <path d="M21 21 L14 28 L21 35" />
    <path d="M14 35 L7 28" />
    <path d="M1 29 L7 35 L1 41" />
    <path d="M1 43 L7 49 L1 55" />
    <path d="M1 57 L7 63 L14 56 L21 49 L14 42 L7 49 L14 56" />
    <path d="M14 63 L7 70 L1 64" />
    <path d="M1 71 L7 77 L1 83" />
    <path d="M1 85 L7 91 L1 97" />
    <path d="M1 99 L7 105 L14 98 L21 91 L14 84 L7 91" />
    <path d="M7 84 L14 77" />
    <path d="M14 70 L21 77 L14 84" />
    <path d="M14 91 L7 98" />
    <path d="M14 105 L7 112 L1 106" />
    <path d="M7 112 L1 118" />
    <path d="M1 120 L7 126 L1 132" />
    <path d="M7 133 L1 139" />
    <path d="M1 141 L7 147 L14 140 L21 147 L14 154 L7 147" />
    <path d="M1 148 L7 154" />
    <path d="M1 155 L7 161 L1 167" />
    <path d="M7 168 L1 174" />
    <path d="M1 176 L7 182 L1 188" />
    <path d="M7 189 L1 195" />
    <path d="M1 197 L7 203 L1 209" />
    <path d="M7 210 L1 216" />
    <path d="M1 218 L7 224 L1 230" />
    <path d="M7 231 L1 237" />
    <path d="M7 238 L1 244" />
    <path d="M1 246 L7 252 L14 245" />
    <path d="M14 238 L7 245" />
    <path d="M7 238 L14 231 L21 238" />
    <path d="M21 231 L14 224 L7 231" />
    <path d="M7 224 L14 217 L21 210 L14 203 L7 210" />
    <path d="M14 210 L7 217" />
    <path d="M14 224 L21 217 L28 224" />
    <path d="M28 217 L21 210" />
    <path d="M21 203 L14 196 L7 203" />
    <path d="M21 203 L28 196 L21 189 L28 182 L21 175 L14 168" />
    <path d="M7 168 L14 175 L7 182" />
    <path d="M14 182 L7 189" />
    <path d="M14 189 L7 196" />
    <path d="M14 189 L21 196" />
    <path d="M21 203 L28 210 L35 217 L42 210 L35 203 L28 210" />
    <path d="M28 217 L35 224 L28 231" />
    <path d="M21 231 L28 238 L21 245 L14 252" />
    <path d="M7 252 L14 259 L21 252 L28 245 L35 252 L28 259 L21 252" />
    <path d="M21 245 L14 238" />
    <path d="M28 238 L35 231 L42 224" />
    <path d="M42 217 L35 224" />
    <path d="M35 231 L42 238 L35 245 L42 252 L49 245" />
    <path d="M49 238 L42 245" />
    <path d="M42 238 L49 231 L56 224 L63 231 L56 238 L63 245 L70 238 L63 231 L70 224 L63 217 L56 210 L49 203 L42 210" />
    <path d="M42 203 L35 196" />
    <path d="M28 196 L35 203" />
    <path d="M42 203 L49 196" />
    <path d="M42 196 L35 189" />
    <path d="M35 182 L28 189 L35 196" />
    <path d="M42 196 L49 189 L56 182 L63 175 L56 168 L49 161" />
    <path d="M42 161 L35 154 L28 161 L21 154 L14 161 L21 168 L28 175" />
    <path d="M28 168 L21 161" />
    <path d="M28 161 L35 168 L42 161 L49 154 L42 147 L35 140 L28 133 L21 140 L14 133 L7 140" />
    <path d="M14 133 L21 126" />
    <path d="M14 126 L7 119" />
    <path d="M7 126 L14 133" />
    <path d="M14 126 L21 119 L14 112 L7 119" />
    <path d="M21 119 L28 112 L35 105 L28 98 L21 105" />
    <path d="M21 98 L14 105 L21 112" />
    <path d="M21 119 L28 126 L21 133" />
    <path d="M28 133 L35 126 L42 133" />
    <path d="M42 126 L35 119 L28 126" />
    <path d="M28 119 L35 112" />
    <path d="M35 105 L42 98 L35 91 L28 84 L21 77" />
    <path d="M21 70 L14 63 L21 56 L28 49 L35 56 L42 49" />
    <path d="M35 49 L28 42 L21 49" />
    <path d="M21 42 L14 35 L7 42" />
    <path d="M21 42 L28 35 L35 28" />
    <path d="M28 28 L21 21" />
    <path d="M21 28 L28 35 L35 42" />
    <path d="M35 35 L42 28 L35 21 L28 14 L21 7 L14 14 L7 21" />
    <path d="M7 7 L14 14" />
    <path d="M15 1 L21 7" />
    <path d="M22 1 L28 7 L35 14 L42 21 L49 14 L56 7" />
    <path d="M55 1 L49 7 L42 14 L35 7 L41 1" />
    <path d="M43 1 L49 7" />
    <path d="M49 14 L56 21 L49 28 L42 35 L49 42 L56 35 L63 42" />
    <path d="M63 35 L56 28 L63 21" />
    <path d="M63 14 L56 21" />
    <path d="M49 21 L42 28" />
    <path d="M49 28 L56 35" />
    <path d="M56 42 L63 49 L56 56 L49 49 L42 42 L35 49" />
    <path d="M28 56 L21 63 L28 70 L35 63 L42 56 L49 49" />
    <path d="M49 42 L56 49" />
    <path d="M56 56 L63 63 L70 56" />
    <path d="M70 49 L63 56" />
    <path d="M63 49 L70 42" />
    <path d="M70 35 L77 28" />
    <path d="M70 28 L63 35 L70 42" />
    <path d="M70 35 L77 42 L70 49 L77 56 L70 63 L63 70 L56 63 L49 56" />
    <path d="M42 56 L49 63 L56 70 L63 77 L56 84 L49 77" />
    <path d="M49 70 L42 63" />
    <path d="M35 63 L42 70 L35 77 L28 84" />
    <path d="M21 84 L28 91 L21 98" />
    <path d="M28 105 L21 112" />
    <path d="M35 105 L42 112 L35 119" />
    <path d="M42 119 L49 126 L56 133 L63 126 L56 119 L49 112" />
    <path d="M49 105 L42 112 L49 119 L56 126" />
    <path d="M56 119 L63 112 L70 105 L63 98 L56 91 L63 84" />
    <path d="M56 84 L49 91 L42 98" />
    <path d="M42 91 L49 84 L42 77 L49 70 L56 77" />
    <path d="M63 77 L70 84 L63 91 L70 98 L77 105" />
    <path d="M77 98 L70 91" />
    <path d="M70 84 L77 77 L84 70 L77 63 L70 70" />
    <path d="M63 70 L70 77" />
    <path d="M70 84 L77 91 L84 84 L91 77 L84 70" />
    <path d="M77 70 L70 77" />
    <path d="M84 77 L77 84" />
    <path d="M77 91 L84 98 L91 91 L98 98 L105 91 L112 84 L119 91 L126 84 L119 77 L112 70 L105 63 L98 56 L91 49 L84 56 L77 49" />
    <path d="M77 42 L84 49 L91 42 L98 35 L91 28" />
    <path d="M84 28 L77 21 L70 28" />
    <path d="M70 21 L63 14" />
    <path d="M63 7 L56 14" />
    <path d="M63 7 L70 14 L77 7 L83 1" />
    <path d="M85 1 L91 7 L84 14 L77 7" />
    <path d="M76 1 L70 7" />
    <path d="M64 1 L70 7" />
    <path d="M77 14 L70 21 L63 28" />
    <path d="M77 35 L84 28 L91 21 L98 28" />
    <path d="M98 21 L91 14" />
    <path d="M84 14 L91 21" />
    <path d="M98 21 L105 28 L98 35 L105 42 L112 35 L105 28" />
    <path d="M105 21 L98 14 L105 7 L111 1" />
    <path d="M112 7 L105 14" />
    <path d="M98 14 L91 7" />
    <path d="M98 7 L104 1" />
    <path d="M97 1 L91 7" />
    <path d="M77 14 L84 21" />
    <path d="M84 28 L91 35 L84 42" />
    <path d="M77 35 L84 42" />
    <path d="M91 49 L98 42 L105 49 L98 56" />
    <path d="M91 56 L98 63 L91 70 L98 77" />
    <path d="M91 77 L98 84 L105 77 L98 70" />
    <path d="M98 63 L105 70 L112 77 L105 84 L98 91 L91 84" />
    <path d="M84 84 L91 91" />
    <path d="M91 98 L84 105 L77 98" />
    <path d="M70 105 L77 112 L70 119" />
    <path d="M63 119 L70 126 L77 119 L84 126 L77 133" />
    <path d="M70 133 L63 126" />
    <path d="M63 133 L56 140 L49 133 L42 140 L35 133" />
    <path d="M35 140 L28 147" />
    <path d="M28 140 L21 147 L28 154" />
    <path d="M35 147 L28 154" />
    <path d="M35 147 L42 154" />
    <path d="M42 147 L49 140 L56 147 L49 154 L56 161 L63 154 L70 161 L63 168 L56 161" />
    <path d="M56 154 L63 147 L70 140 L63 133" />
    <path d="M63 140 L56 147" />
    <path d="M63 147 L70 154" />
    <path d="M70 147 L77 140 L84 133" />
    <path d="M84 140 L77 147 L84 154 L91 147 L84 140 L91 133 L84 126 L91 119 L84 112 L91 105" />
    <path d="M84 105 L77 112 L84 119" />
    <path d="M91 119 L98 112" />
    <path d="M98 105 L91 112" />
    <path d="M98 119 L91 126" />
    <path d="M98 126 L91 133 L98 140 L91 147" />
    <path d="M91 154 L84 161 L77 154 L70 161 L77 168 L84 161" />
    <path d="M84 168 L77 175 L70 168 L63 175" />
    <path d="M56 175 L49 168" />
    <path d="M42 168 L49 175 L42 182 L35 175 L28 182" />
    <path d="M21 182 L14 189" />
    <path d="M14 175 L21 182" />
    <path d="M35 182 L42 189" />
    <path d="M49 189 L56 196 L49 203" />
    <path d="M49 210 L42 217 L49 224 L42 231" />
    <path d="M49 231 L56 238" />
    <path d="M49 238 L56 245 L49 252" />
    <path d="M42 252 L49 259 L42 266 L35 259 L28 266 L21 273 L14 280" />
    <path d="M7 280 L1 274" />
    <path d="M1 267 L7 273" />
    <path d="M7 266 L1 260" />
    <path d="M7 259 L1 253" />
    <path d="M7 259 L14 266" />
    <path d="M7 266 L14 273 L7 280 L1 286" />
    <path d="M7 287 L1 293" />
    <path d="M1 295 L7 301 L1 307" />
    <path d="M7 308 L1 314" />
    <path d="M3 319 L7 315" />
    <path d="M10 319 L14 315" />
    <path d="M17 319 L21 315 L14 308 L21 301 L28 294 L35 287 L42 280 L35 273 L28 266" />
    <path d="M21 266 L14 273" />
    <path d="M7 280 L14 287 L7 294" />
    <path d="M14 294 L7 301" />
    <path d="M14 301 L7 308 L14 315" />
    <path d="M28 315 L24 319" />
    <path d="M28 315 L35 308 L28 301 L21 308" />
    <path d="M28 308 L21 315" />
    <path d="M28 315 L32 319" />
    <path d="M35 315 L42 308 L49 315" />
    <path d="M46 319 L42 315" />
    <path d="M35 315 L39 319" />
    <path d="M52 319 L56 315 L49 308 L42 301" />
    <path d="M42 294 L35 301 L42 308" />
    <path d="M49 301 L42 294 L49 287 L56 280 L49 273 L42 266 L35 273 L28 280" />
    <path d="M21 280 L14 287" />
    <path d="M21 287 L14 294" />
    <path d="M21 294 L14 301" />
    <path d="M28 301 L35 294 L42 287 L49 280" />
    <path d="M49 273 L42 280" />
    <path d="M35 280 L28 287 L21 294" />
    <path d="M21 280 L28 287" />
    <path d="M28 273 L21 280" />
    <path d="M21 266 L28 259" />
    <path d="M35 252 L42 259" />
    <path d="M49 259 L56 266 L63 259" />
    <path d="M63 252 L56 245" />
    <path d="M56 252 L49 259" />
    <path d="M49 266 L56 273" />
    <path d="M63 273 L56 280 L63 287 L70 294 L63 301 L56 308" />
    <path d="M56 301 L63 294 L56 287 L49 294" />
    <path d="M56 294 L49 301 L56 308" />
    <path d="M63 308 L56 315" />
    <path d="M63 315 L59 319" />
    <path d="M70 315 L66 319" />
    <path d="M70 315 L77 308 L84 301 L77 294 L70 287" />
    <path d="M70 280 L77 287 L84 280 L91 273 L84 266 L77 259 L70 252" />
    <path d="M63 252 L56 259" />
    <path d="M63 266 L56 273" />
    <path d="M63 273 L70 280" />
    <path d="M63 280 L70 287" />
    <path d="M70 294 L77 301 L70 308 L63 315" />
    <path d="M70 315 L74 319" />
    <path d="M77 315 L81 319" />
    <path d="M84 315 L91 308" />
    <path d="M91 301 L84 308" />
    <path d="M77 308 L84 315" />
    <path d="M91 315 L87 319" />
    <path d="M91 315 L98 308 L91 301" />
    <path d="M91 294 L84 287" />
    <path d="M77 287 L84 294" />
    <path d="M91 294 L84 301" />
    <path d="M91 294 L98 287 L91 280" />
    <path d="M84 280 L91 287" />
    <path d="M91 294 L98 301 L105 308 L112 301 L105 294 L112 287 L119 294 L112 301" />
    <path d="M105 301 L98 294 L105 287 L98 280" />
    <path d="M98 273 L105 280" />
    <path d="M98 280 L91 273 L98 266 L105 273 L112 280 L105 287" />
    <path d="M112 280 L119 273 L112 266" />
    <path d="M105 266 L98 259 L91 252 L84 259 L77 252 L70 245 L63 252 L70 259 L63 266" />
    <path d="M70 266 L63 273" />
    <path d="M70 273 L77 280" />
    <path d="M84 273 L77 280" />
    <path d="M77 266 L84 273" />
    <path d="M77 273 L70 266" />
    <path d="M77 259 L70 266" />
    <path d="M84 259 L91 266" />
    <path d="M98 259 L91 266" />
    <path d="M91 252 L98 245 L91 238" />
    <path d="M91 231 L84 224" />
    <path d="M77 224 L70 231 L77 238 L70 245" />
    <path d="M77 245 L84 252 L91 245 L84 238 L91 231 L98 238 L105 245 L98 252 L105 259 L112 252 L119 259 L126 252" />
    <path d="M119 252 L112 245 L105 238 L98 231 L91 224 L84 217 L77 224 L84 231 L77 238 L84 245" />
    <path d="M105 238 L112 231 L119 238 L112 245 L105 252" />
    <path d="M112 259 L105 266 L112 273" />
    <path d="M112 280 L119 287 L126 294 L133 287 L140 280 L133 273 L126 280 L119 273" />
    <path d="M119 266 L126 273 L133 266 L126 259 L133 252 L126 245 L119 252" />
    <path d="M119 245 L126 238 L133 245" />
    <path d="M133 238 L126 231 L119 224 L126 217 L133 210 L126 203 L119 196 L112 203 L105 196 L98 189 L91 196" />
    <path d="M84 196 L77 189 L70 182 L63 189 L70 196 L63 203 L70 210 L77 203 L70 196" />
    <path d="M63 196 L56 189" />
    <path d="M56 182 L63 189" />
    <path d="M63 196 L56 203 L63 210 L70 217" />
    <path d="M70 210 L77 217 L70 224" />
    <path d="M63 224 L56 217 L49 224" />
    <path d="M56 210 L49 217" />
    <path d="M77 217 L84 210 L91 217 L98 210 L91 203 L84 196 L77 203" />
    <path d="M84 203 L77 210" />
    <path d="M84 203 L91 210" />
    <path d="M91 217 L98 224 L105 231 L112 224 L119 217 L126 210" />
    <path d="M119 210 L112 217 L105 224" />
    <path d="M105 217 L112 210 L119 203" />
    <path d="M112 203 L105 210" />
    <path d="M98 210 L105 217" />
    <path d="M98 217 L105 224" />
    <path d="M112 224 L119 231" />
    <path d="M126 231 L119 238" />
    <path d="M133 238 L140 231 L133 224" />
    <path d="M133 217 L126 224 L133 231" />
    <path d="M133 238 L140 245 L133 252" />
    <path d="M140 252 L133 259" />
    <path d="M140 259 L133 266 L140 273 L147 266 L154 259 L147 252" />
    <path d="M140 252 L147 259 L140 266" />
    <path d="M140 273 L147 280 L154 287 L147 294 L140 287" />
    <path d="M133 287 L140 294 L133 301" />
    <path d="M126 301 L119 294" />
    <path d="M119 301 L112 308" />
    <path d="M105 308 L112 315 L119 308 L126 315 L133 308 L140 301 L147 308 L154 315 L150 319" />
    <path d="M147 315 L140 308 L133 315 L137 319" />
    <path d="M140 315 L144 319" />
    <path d="M157 319 L161 315 L154 308 L161 301" />
    <path d="M154 301 L147 294" />
    <path d="M147 287 L140 280" />
    <path d="M133 280 L126 287" />
    <path d="M119 280 L126 287" />
    <path d="M133 294 L126 301 L133 308" />
    <path d="M126 315 L130 319" />
    <path d="M123 319 L119 315" />
    <path d="M112 315 L116 319" />
    <path d="M109 319 L105 315 L98 308" />
    <path d="M98 315 L94 319" />
    <path d="M105 315 L101 319" />
    <path d="M119 301 L126 308" />
    <path d="M140 294 L147 301 L154 308" />
    <path d="M154 301 L161 294 L168 287 L175 280 L182 287 L175 294 L168 287" />
    <path d="M161 287 L154 294" />
    <path d="M154 287 L161 280 L168 273" />
    <path d="M161 273 L154 266" />
    <path d="M147 266 L154 273" />
    <path d="M147 273 L154 280" />
    <path d="M161 273 L154 280" />
    <path d="M161 273 L168 266 L161 259 L168 252 L161 245 L154 252 L147 245" />
    <path d="M147 238 L140 245 L147 252" />
    <path d="M154 245 L161 238 L154 231" />
    <path d="M147 231 L140 238" />
    <path d="M140 231 L147 224" />
    <path d="M147 217 L154 210 L147 203 L140 210" />
    <path d="M140 203 L133 210 L140 217 L147 210" />
    <path d="M147 203 L154 196 L161 189 L154 182 L147 189" />
    <path d="M140 189 L133 196 L126 189" />
    <path d="M119 189 L112 196 L105 189 L112 182 L105 175 L112 168 L105 161 L98 168 L91 175 L84 168 L91 161" />
    <path d="M91 154 L98 147 L105 140 L112 133 L119 126 L126 133 L119 140 L126 147 L133 140 L140 133 L133 126 L126 133" />
    <path d="M119 133 L112 140 L105 147 L112 154 L119 147 L126 154 L119 161 L112 154" />
    <path d="M105 154 L98 147" />
    <path d="M98 140 L105 133 L112 126 L119 119 L112 112 L119 105 L126 98 L119 91" />
    <path d="M119 84 L112 77" />
    <path d="M119 77 L126 70 L119 63 L126 56 L133 63 L140 56 L147 49 L140 42 L133 35 L126 28 L133 21" />
    <path d="M126 21 L119 28 L112 21 L119 14 L112 7 L118 1" />
    <path d="M119 7 L126 14 L119 21" />
    <path d="M119 28 L112 35" />
    <path d="M119 35 L112 42 L119 49 L126 42 L119 35" />
    <path d="M119 28 L126 35 L133 42" />
    <path d="M126 42 L133 49 L140 42" />
    <path d="M140 35 L133 28 L140 21 L133 14 L126 21" />
    <path d="M133 14 L126 7 L132 1" />
    <path d="M134 1 L140 7 L146 1" />
    <path d="M147 7 L140 14" />
    <path d="M147 14 L140 21" />
    <path d="M147 21 L140 28 L147 35 L154 42 L161 35 L154 28" />
    <path d="M154 21 L147 14" />
    <path d="M147 7 L154 14 L161 7 L167 1" />
    <path d="M168 7 L161 14 L168 21" />
    <path d="M161 21 L154 14" />
    <path d="M154 21 L147 28 L154 35" />
    <path d="M154 42 L161 49 L154 56 L161 63 L154 70 L147 77 L140 70 L133 77 L126 84" />
    <path d="M126 77 L133 70 L140 63" />
    <path d="M140 56 L147 63 L140 70" />
    <path d="M133 70 L126 63" />
    <path d="M119 56 L112 49" />
    <path d="M105 49 L112 56 L105 63" />
    <path d="M112 63 L119 56 L126 49 L133 56" />
    <path d="M140 49 L133 56" />
    <path d="M147 56 L154 49" />
    <path d="M161 49 L168 42 L161 35 L168 28 L175 21 L168 14 L175 7 L181 1" />
    <path d="M182 7 L175 14 L182 21 L175 28" />
    <path d="M168 28 L175 35 L168 42 L175 49 L182 42 L189 35 L196 28 L203 21 L196 14 L203 7" />
    <path d="M202 1 L196 7 L189 14 L196 21 L189 28 L182 35" />
    <path d="M182 28 L175 35 L182 42" />
    <path d="M189 42 L182 49" />
    <path d="M175 49 L182 56 L175 63 L168 56 L161 63 L168 70 L161 77" />
    <path d="M161 70 L154 77 L161 84 L154 91 L147 98" />
    <path d="M140 98 L133 91" />
    <path d="M133 84 L126 91 L133 98 L126 105 L133 112" />
    <path d="M126 112 L119 119 L126 126 L133 119 L140 112 L133 105 L140 98 L147 91 L140 84" />
    <path d="M133 84 L140 91" />
    <path d="M140 98 L147 105 L140 112 L147 119 L140 126 L147 133 L154 126 L147 119" />
    <path d="M140 119 L133 126" />
    <path d="M133 119 L126 112" />
    <path d="M119 105 L126 112" />
    <path d="M112 105 L105 112 L98 119 L105 126 L98 133" />
    <path d="M105 126 L112 119" />
    <path d="M105 112 L112 119" />
    <path d="M112 105 L119 98 L112 91" />
    <path d="M105 91 L112 98 L105 105" />
    <path d="M98 105 L105 112" />
    <path d="M98 98 L105 105" />
    <path d="M91 98 L98 105" />
    <path d="M77 126 L70 133 L77 140" />
    <path d="M70 147 L77 154" />
    <path d="M91 154 L98 161 L91 168" />
    <path d="M91 175 L84 182" />
    <path d="M84 175 L77 182 L84 189" />
    <path d="M91 189 L84 196" />
    <path d="M84 189 L91 182" />
    <path d="M98 182 L91 189" />
    <path d="M91 182 L98 175 L105 182 L98 189" />
    <path d="M98 196 L91 203" />
    <path d="M98 203 L105 210" />
    <path d="M105 196 L98 203" />
    <path d="M112 189 L119 182" />
    <path d="M119 175 L112 168 L119 161" />
    <path d="M112 161 L105 154 L98 161" />
    <path d="M105 168 L98 175" />
    <path d="M112 182 L119 175 L126 182 L119 189 L126 196" />
    <path d="M126 203 L119 210" />
    <path d="M133 203 L140 196" />
    <path d="M133 196 L126 203" />
    <path d="M140 203 L147 196 L154 189" />
    <path d="M154 196 L161 203 L154 210" />
    <path d="M161 210 L154 217" />
    <path d="M147 217 L154 224 L147 231 L154 238" />
    <path d="M147 238 L154 245" />
    <path d="M161 252 L154 259 L161 266" />
    <path d="M168 266 L175 273 L168 280 L161 287" />
    <path d="M161 294 L168 301 L161 308" />
    <path d="M168 308 L161 315" />
    <path d="M168 315 L164 319" />
    <path d="M168 315 L172 319" />
    <path d="M182 315 L178 319" />
    <path d="M182 315 L189 308 L196 301" />
    <path d="M189 301 L182 308 L175 301" />
    <path d="M175 294 L168 301 L175 308 L182 315 L186 319" />
    <path d="M189 315 L193 319" />
    <path d="M196 315 L203 308 L210 315 L206 319" />
    <path d="M203 315 L199 319" />
    <path d="M196 308 L189 315" />
    <path d="M196 308 L203 301 L196 294 L189 287" />
    <path d="M189 280 L182 287 L189 294 L182 301" />
    <path d="M189 301 L196 294 L203 287 L210 280 L203 273 L196 266 L189 259" />
    <path d="M182 259 L175 252 L168 259 L175 266" />
    <path d="M175 259 L182 266 L175 273 L182 280 L189 273 L196 266 L203 259 L210 252 L217 245 L210 238" />
    <path d="M203 238 L196 231 L189 238 L182 231 L175 224 L168 231 L161 238 L168 245" />
    <path d="M168 238 L175 245 L168 252" />
    <path d="M175 252 L182 245" />
    <path d="M182 238 L175 245" />
    <path d="M182 238 L189 245 L182 252" />
    <path d="M189 252 L182 259 L189 266 L182 273" />
    <path d="M189 273 L196 280 L203 273" />
    <path d="M203 280 L196 287" />
    <path d="M189 280 L196 287" />
    <path d="M210 287 L203 294" />
    <path d="M210 294 L203 301 L210 308 L217 315 L213 319" />
    <path d="M220 319 L224 315 L217 308" />
    <path d="M217 301 L210 294" />
    <path d="M217 294 L224 287 L231 280 L238 287 L231 294" />
    <path d="M224 294 L231 301 L224 308 L217 301 L210 308" />
    <path d="M224 308 L231 315 L227 319" />
    <path d="M231 315 L238 308" />
    <path d="M238 301 L245 294 L238 287 L245 280 L252 273 L245 266 L238 273 L231 266 L224 259 L217 266 L210 259" />
    <path d="M203 259 L210 266" />
    <path d="M203 266 L210 273 L217 280" />
    <path d="M210 280 L217 287 L210 294" />
    <path d="M217 294 L224 301" />
    <path d="M231 301 L238 294" />
    <path d="M238 301 L245 308 L238 315" />
    <path d="M241 319 L245 315 L252 308 L245 301" />
    <path d="M245 294 L252 287 L259 280 L252 273" />
    <path d="M245 273 L238 280 L231 273 L224 266" />
    <path d="M217 266 L210 273" />
    <path d="M217 273 L224 280 L217 287" />
    <path d="M224 287 L231 294" />
    <path d="M231 301 L238 308" />
    <path d="M231 315 L235 319" />
    <path d="M252 315 L248 319" />
    <path d="M252 315 L259 308 L266 301 L273 294 L266 287 L259 294 L252 301" />
    <path d="M252 294 L259 287 L266 280 L259 273 L252 266 L245 259 L238 266" />
    <path d="M238 259 L231 252 L224 245 L231 238 L224 231 L217 224 L210 217 L203 210 L196 203 L189 210 L182 217 L175 210 L168 203 L161 196 L168 189 L161 182 L154 175 L147 182 L140 189 L147 196" />
    <path d="M133 189 L126 182" />
    <path d="M126 175 L133 168 L126 161 L119 168" />
    <path d="M126 168 L119 175" />
    <path d="M126 175 L133 182 L140 175 L147 168 L140 161" />
    <path d="M133 161 L126 154" />
    <path d="M133 154 L140 147 L133 140" />
    <path d="M133 133 L126 140" />
    <path d="M133 147 L126 154" />
    <path d="M133 161 L140 168 L133 175" />
    <path d="M140 182 L133 189" />
    <path d="M147 175 L140 182" />
    <path d="M147 175 L154 168 L147 161 L140 154 L133 161" />
    <path d="M140 147 L147 154 L154 147 L161 154 L154 161" />
    <path d="M161 161 L154 168 L161 175 L168 182 L175 189 L168 196" />
    <path d="M175 196 L168 203" />
    <path d="M161 203 L168 210 L175 217 L168 224 L161 217 L154 224 L161 231" />
    <path d="M168 231 L175 238" />
    <path d="M175 231 L182 238" />
    <path d="M182 231 L189 224 L182 217 L175 224" />
    <path d="M168 224 L161 231" />
    <path d="M161 210 L168 217" />
    <path d="M175 203 L182 210 L189 203 L196 196 L189 189 L182 196" />
    <path d="M182 189 L175 196 L182 203" />
    <path d="M189 196 L182 203" />
    <path d="M189 210 L196 217 L189 224" />
    <path d="M196 224 L189 231" />
    <path d="M189 238 L196 245 L203 238 L210 231 L217 238 L224 231" />
    <path d="M217 231 L210 224 L203 217" />
    <path d="M203 210 L196 217 L203 224" />
    <path d="M196 224 L203 231" />
    <path d="M203 238 L210 245 L203 252 L196 259" />
    <path d="M196 252 L203 245" />
    <path d="M210 252 L217 259" />
    <path d="M217 266 L224 273" />
    <path d="M231 273 L224 280" />
    <path d="M231 266 L238 259 L245 252 L252 245" />
    <path d="M245 245 L238 252" />
    <path d="M238 245 L231 252" />
    <path d="M224 252 L217 245" />
    <path d="M224 238 L217 245" />
    <path d="M224 252 L217 259" />
    <path d="M224 252 L231 259" />
    <path d="M231 245 L238 238 L245 231 L238 224 L231 217 L224 210 L217 203 L210 196 L203 189 L196 182 L189 175 L182 168" />
    <path d="M175 168 L168 161 L161 168 L168 175" />
    <path d="M168 168 L175 175 L168 182" />
    <path d="M175 182 L182 175" />
    <path d="M182 182 L175 189" />
    <path d="M182 189 L189 182" />
    <path d="M189 175 L182 182" />
    <path d="M196 182 L189 189" />
    <path d="M196 189 L203 196 L210 203 L203 210" />
    <path d="M210 203 L217 210 L210 217" />
    <path d="M210 224 L203 231" />
    <path d="M189 245 L196 252" />
    <path d="M189 252 L196 259" />
    <path d="M175 294 L182 301" />
    <path d="M168 308 L175 315" />
    <path d="M245 294 L252 301" />
    <path d="M259 301 L252 308" />
    <path d="M259 308 L266 315" />
    <path d="M263 319 L259 315 L255 319" />
    <path d="M269 319 L273 315 L280 308 L287 301 L294 294 L301 301 L294 308 L301 315 L297 319" />
    <path d="M294 315 L287 308 L294 301" />
    <path d="M287 294 L280 287" />
    <path d="M280 280 L273 273 L266 280" />
    <path d="M266 273 L273 266" />
    <path d="M266 266 L259 273" />
    <path d="M259 266 L252 259" />
    <path d="M252 252 L245 259" />
    <path d="M252 252 L259 245 L252 238 L245 231 L252 224 L245 217 L238 210 L231 203 L224 210 L217 217 L224 224 L231 231" />
    <path d="M231 224 L238 231 L231 238" />
    <path d="M245 238 L238 245" />
    <path d="M252 238 L245 245" />
    <path d="M252 238 L259 231" />
    <path d="M259 224 L252 217 L245 210 L238 203 L245 196 L252 189 L245 182" />
    <path d="M238 182 L231 189 L224 182 L217 175 L210 168 L203 161 L196 154 L189 161 L182 154 L175 161" />
    <path d="M175 154 L168 147 L161 140 L154 133" />
    <path d="M147 133 L154 140 L147 147" />
    <path d="M147 140 L140 147" />
    <path d="M147 154 L154 161" />
    <path d="M168 161 L175 154 L182 147 L175 140 L168 133 L175 126" />
    <path d="M168 126 L161 119 L154 112 L161 105 L154 98 L147 105" />
    <path d="M154 105 L147 112 L154 119" />
    <path d="M161 119 L154 126 L161 133 L168 126 L175 119 L182 112 L189 105 L196 98 L203 105 L210 112 L217 105 L224 98 L231 105 L238 98 L245 91 L252 84 L259 91 L252 98 L245 91" />
    <path d="M238 91 L231 84 L224 77 L231 70 L224 63 L217 56 L210 63 L217 70" />
    <path d="M210 70 L203 63 L196 56 L189 49 L182 56 L189 63" />
    <path d="M182 63 L175 70 L168 63" />
    <path d="M168 56 L161 49" />
    <path d="M168 49 L175 56" />
    <path d="M182 63 L189 70 L196 63 L203 70 L196 77 L189 70" />
    <path d="M182 70 L175 77 L168 84 L161 91 L154 98" />
    <path d="M161 98 L168 91" />
    <path d="M168 84 L175 91 L168 98" />
    <path d="M161 98 L168 105 L175 98 L182 91 L189 98 L182 105 L175 112 L168 119" />
    <path d="M175 119 L182 126 L175 133" />
    <path d="M175 140 L168 147 L161 154" />
    <path d="M168 154 L161 161" />
    <path d="M175 168 L182 175" />
    <path d="M189 168 L182 161 L175 168" />
    <path d="M189 168 L196 161 L203 168 L196 175 L203 182 L210 175" />
    <path d="M210 168 L203 175" />
    <path d="M210 182 L203 189" />
    <path d="M210 189 L217 196" />
    <path d="M217 189 L210 182" />
    <path d="M217 182 L224 189 L231 196 L224 203" />
    <path d="M224 196 L217 203" />
    <path d="M217 189 L224 196" />
    <path d="M231 196 L238 189" />
    <path d="M238 196 L231 203" />
    <path d="M231 210 L238 217" />
    <path d="M245 217 L238 224" />
    <path d="M224 217 L231 224" />
    <path d="M252 217 L259 210 L266 203" />
    <path d="M259 203 L252 196" />
    <path d="M245 196 L252 203" />
    <path d="M245 203 L252 210" />
    <path d="M259 203 L252 210" />
    <path d="M259 203 L266 196 L273 203 L266 210 L259 217" />
    <path d="M259 224 L252 231" />
    <path d="M259 224 L266 231 L259 238" />
    <path d="M266 238 L259 245" />
    <path d="M266 245 L259 252 L266 259 L259 266" />
    <path d="M266 266 L273 259 L280 266 L273 273" />
    <path d="M273 280 L266 287" />
    <path d="M266 294 L259 301" />
    <path d="M266 301 L273 308 L280 301 L287 294 L294 287 L301 280 L294 273" />
    <path d="M287 273 L280 266 L287 259 L280 252 L273 245 L266 252" />
    <path d="M266 245 L273 238 L280 245" />
    <path d="M280 238 L273 231 L266 238" />
    <path d="M266 231 L273 224 L280 217 L287 210 L280 203 L273 196 L266 189 L259 196" />
    <path d="M259 189 L266 182 L259 175 L252 168 L245 175 L238 168 L231 161 L224 154 L217 147 L210 140" />
    <path d="M203 140 L196 133 L189 126 L196 119 L203 112 L196 105" />
    <path d="M189 105 L196 112 L189 119 L182 126 L189 133 L182 140" />
    <path d="M182 133 L175 140" />
    <path d="M182 147 L189 154 L196 147 L203 140 L210 133 L217 140 L224 147 L231 140" />
    <path d="M224 140 L217 133 L210 126 L203 119" />
    <path d="M196 119 L203 126" />
    <path d="M196 126 L203 133 L210 126" />
    <path d="M210 119 L217 126 L224 133 L231 126 L238 119 L245 126 L238 133 L245 140 L238 147 L245 154" />
    <path d="M238 154 L231 147 L224 154" />
    <path d="M217 154 L210 147 L203 154" />
    <path d="M210 154 L203 161" />
    <path d="M203 154 L196 147" />
    <path d="M196 140 L189 133" />
    <path d="M189 140 L182 147" />
    <path d="M196 140 L189 147" />
    <path d="M203 140 L210 147" />
    <path d="M210 154 L217 161" />
    <path d="M210 161 L217 168 L224 161" />
    <path d="M224 168 L217 175 L210 182" />
    <path d="M224 175 L231 182" />
    <path d="M238 182 L245 175 L252 182 L259 175 L266 168 L259 161 L252 154 L245 147 L252 140 L259 133 L266 126 L273 133 L266 140" />
    <path d="M259 140 L266 147 L273 140" />
    <path d="M266 140 L259 133" />
    <path d="M252 133 L245 140" />
    <path d="M238 140 L231 133 L224 140" />
    <path d="M231 133 L238 126" />
    <path d="M231 119 L224 112 L217 119 L210 112" />
    <path d="M210 105 L203 98 L196 91 L189 84 L182 77 L175 84" />
    <path d="M182 84 L175 91" />
    <path d="M182 98 L175 105" />
    <path d="M168 105 L175 112" />
    <path d="M182 119 L189 112" />
    <path d="M189 98 L196 91" />
    <path d="M196 84 L189 77" />
    <path d="M196 77 L203 84 L210 77 L217 84 L224 91 L217 98 L210 91 L203 98" />
    <path d="M210 105 L217 98" />
    <path d="M217 105 L224 112" />
    <path d="M224 105 L231 112" />
    <path d="M231 119 L224 126" />
    <path d="M217 119 L224 126" />
    <path d="M238 112 L231 119" />
    <path d="M238 112 L245 105 L252 112 L245 119 L252 126 L245 133" />
    <path d="M252 133 L259 126 L266 119 L259 112 L252 119" />
    <path d="M245 119 L238 112" />
    <path d="M231 105 L238 112" />
    <path d="M238 98 L245 105" />
    <path d="M245 98 L252 105 L259 112" />
    <path d="M259 119 L252 126" />
    <path d="M252 140 L259 147 L266 154 L259 161" />
    <path d="M252 161 L245 168 L238 161" />
    <path d="M231 161 L224 168 L231 175" />
    <path d="M231 168 L238 175 L231 182" />
    <path d="M238 182 L245 189 L238 196" />
    <path d="M252 189 L259 196" />
    <path d="M259 182 L252 189" />
    <path d="M266 182 L273 189 L280 196" />
    <path d="M280 189 L273 182 L280 175 L287 182 L280 189 L287 196 L280 203" />
    <path d="M273 203 L280 210 L273 217 L266 210" />
    <path d="M266 217 L259 224" />
    <path d="M273 224 L280 231" />
    <path d="M287 231 L280 238 L287 245 L280 252" />
    <path d="M273 252 L266 259" />
    <path d="M273 252 L280 259" />
    <path d="M287 259 L294 266 L287 273 L280 280 L273 287 L280 294 L273 301" />
    <path d="M266 308 L273 315" />
    <path d="M280 315 L276 319" />
    <path d="M280 315 L284 319" />
    <path d="M287 315 L291 319" />
    <path d="M301 315 L308 308" />
    <path d="M308 301 L301 294" />
    <path d="M301 287 L308 294 L315 301 L319 305" />
    <path d="M315 308 L308 301 L301 308" />
    <path d="M301 315 L305 319" />
    <path d="M315 315 L311 319" />
    <path d="M319 318 L318 319" />
    <path d="M319 312 L315 308 L308 315" />
    <path d="M319 298 L315 294 L308 287 L301 280 L308 273 L315 266" />
    <path d="M319 269 L315 273 L308 280" />
    <path d="M315 280 L308 287" />
    <path d="M315 287 L319 283" />
    <path d="M315 287 L319 291" />
    <path d="M319 276 L315 280" />
    <path d="M315 266 L319 262" />
    <path d="M315 259 L308 266 L301 273 L294 266 L301 259" />
    <path d="M301 252 L294 259 L287 252" />
    <path d="M287 245 L294 252 L301 245 L308 238 L301 231 L308 224 L301 217" />
    <path d="M294 217 L287 224 L280 231" />
    <path d="M287 231 L294 224" />
    <path d="M294 231 L287 238 L294 245 L301 238 L294 231 L301 224" />
    <path d="M308 224 L315 231 L308 238" />
    <path d="M315 238 L308 245" />
    <path d="M301 245 L308 252 L315 245" />
    <path d="M319 242 L315 238" />
    <path d="M319 234 L315 238" />
    <path d="M319 248 L315 252 L308 259 L301 266" />
    <path d="M301 252 L308 259" />
    <path d="M319 255 L315 259" />
    <path d="M315 231 L319 227" />
    <path d="M315 224 L308 217 L301 210 L294 217 L301 224" />
    <path d="M308 217 L315 210 L308 203 L301 210" />
    <path d="M294 210 L287 203" />
    <path d="M287 196 L294 189 L301 182 L308 175 L301 168 L294 175 L287 168 L280 161 L273 154 L266 161" />
    <path d="M273 161 L266 168" />
    <path d="M259 168 L252 161" />
    <path d="M245 161 L238 154 L231 161" />
    <path d="M231 147 L238 140" />
    <path d="M252 147 L259 154" />
    <path d="M252 154 L245 161" />
    <path d="M266 147 L273 154" />
    <path d="M273 147 L280 140 L273 133" />
    <path d="M273 126 L280 119 L273 112 L266 119 L273 126 L280 133 L287 126 L294 119 L287 112 L294 105 L301 98 L294 91 L287 98 L280 105 L273 112" />
    <path d="M266 112 L259 105" />
    <path d="M259 98 L252 105" />
    <path d="M259 98 L266 91 L273 98 L266 105" />
    <path d="M273 105 L266 112" />
    <path d="M273 105 L280 98 L287 91 L280 84 L273 77 L266 70" />
    <path d="M259 70 L252 63 L245 56 L238 63 L231 56 L238 49 L245 42 L238 35 L231 28 L238 21 L245 28 L252 21 L259 14" />
    <path d="M252 14 L245 21 L238 14 L231 21 L224 14 L217 7 L211 1" />
    <path d="M210 7 L203 14 L210 21 L203 28 L196 35 L189 42" />
    <path d="M196 42 L189 49" />
    <path d="M189 56 L196 63" />
    <path d="M196 56 L203 49 L210 42 L203 35" />
    <path d="M196 35 L203 42" />
    <path d="M196 42 L203 49 L210 56 L203 63" />
    <path d="M203 70 L210 77" />
    <path d="M210 70 L217 77 L224 70" />
    <path d="M231 70 L238 63 L245 70 L238 77" />
    <path d="M238 70 L231 77 L238 84 L245 77" />
    <path d="M245 84 L238 91 L231 98 L224 91" />
    <path d="M224 84 L217 77" />
    <path d="M210 84 L217 91" />
    <path d="M224 84 L231 91" />
    <path d="M245 84 L252 77 L259 70 L266 63 L273 70 L280 77" />
    <path d="M280 70 L273 63 L266 56 L259 63 L252 56" />
    <path d="M252 49 L245 42" />
    <path d="M238 42 L231 35 L224 28 L217 21 L210 28 L217 35 L210 42" />
    <path d="M217 42 L210 49" />
    <path d="M217 49 L210 56" />
    <path d="M217 49 L224 42" />
    <path d="M224 35 L217 42" />
    <path d="M217 49 L224 56 L231 49 L238 42" />
    <path d="M231 42 L224 49" />
    <path d="M224 56 L231 63" />
    <path d="M238 56 L245 49" />
    <path d="M252 49 L245 56" />
    <path d="M252 63 L245 70 L252 77 L259 84" />
    <path d="M259 77 L266 84 L259 91" />
    <path d="M259 98 L266 105" />
    <path d="M273 98 L280 91" />
    <path d="M280 84 L287 77 L280 70" />
    <path d="M280 63 L273 56 L266 49 L259 42 L252 49 L259 56" />
    <path d="M266 49 L259 56" />
    <path d="M259 42 L266 35" />
    <path d="M259 35 L252 28 L245 35 L252 42" />
    <path d="M259 35 L252 42" />
    <path d="M259 35 L266 28 L259 21 L266 14 L259 7 L252 14" />
    <path d="M252 7 L245 14" />
    <path d="M245 7 L239 1" />
    <path d="M238 7 L231 14 L224 7 L218 1" />
    <path d="M217 7 L210 14" />
    <path d="M217 14 L210 21" />
    <path d="M203 28 L210 35" />
    <path d="M224 35 L231 42" />
    <path d="M224 28 L217 35" />
    <path d="M231 21 L224 28" />
    <path d="M238 28 L245 35" />
    <path d="M252 21 L259 28" />
    <path d="M266 28 L273 35 L266 42 L273 49" />
    <path d="M273 42 L280 35 L273 28 L280 21 L273 14 L266 21 L273 28" />
    <path d="M280 28 L287 35" />
    <path d="M287 28 L280 21 L287 14 L280 7 L273 14" />
    <path d="M266 7 L273 14" />
    <path d="M280 7 L286 1" />
    <path d="M287 7 L294 14 L287 21 L294 28 L301 35 L308 28 L315 21" />
    <path d="M319 18 L315 14 L308 21 L301 28 L294 21" />
    <path d="M294 14 L301 7" />
    <path d="M300 1 L294 7" />
    <path d="M293 1 L287 7" />
    <path d="M294 14 L301 21 L308 14 L315 7" />
    <path d="M319 4 L316 1" />
    <path d="M314 1 L308 7 L301 14" />
    <path d="M302 1 L308 7" />
    <path d="M319 10 L315 14" />
    <path d="M319 24 L315 28" />
    <path d="M319 31 L315 35" />
    <path d="M319 38 L315 42 L308 35" />
    <path d="M301 35 L308 42" />
    <path d="M301 42 L294 35 L287 28" />
    <path d="M280 35 L287 42 L280 49 L273 56" />
    <path d="M280 56 L287 49 L294 42 L301 49 L294 56 L287 49" />
    <path d="M287 56 L280 63 L287 70" />
    <path d="M294 70 L287 77 L294 84 L287 91" />
    <path d="M294 91 L301 84 L308 91 L301 98 L308 105 L301 112 L294 119" />
    <path d="M287 119 L280 112" />
    <path d="M287 105 L280 112" />
    <path d="M287 119 L280 126" />
    <path d="M287 133 L280 140" />
    <path d="M287 140 L280 147" />
    <path d="M273 147 L280 154 L287 147 L294 140" />
    <path d="M294 133 L287 140" />
    <path d="M287 133 L294 126" />
    <path d="M301 126 L294 133 L301 140 L294 147 L287 154 L280 161" />
    <path d="M273 161 L280 168 L273 175" />
    <path d="M273 168 L266 175 L273 182" />
    <path d="M280 168 L287 175 L294 182 L287 189" />
    <path d="M287 196 L294 203 L301 196 L308 189 L315 182" />
    <path d="M319 179 L315 175 L308 182 L301 189 L294 196" />
    <path d="M301 203 L294 210 L287 217" />
    <path d="M280 217 L287 224" />
    <path d="M273 217 L266 224" />
    <path d="M252 252 L259 259" />
    <path d="M245 280 L252 287" />
    <path d="M280 280 L287 287" />
    <path d="M294 287 L301 294" />
    <path d="M294 280 L287 273" />
    <path d="M294 280 L287 287" />
    <path d="M280 308 L287 315" />
    <path d="M315 217 L319 221" />
    <path d="M319 213 L315 217" />
    <path d="M315 203 L319 207" />
    <path d="M319 200 L315 196 L308 189" />
    <path d="M308 196 L301 203" />
    <path d="M315 196 L308 203" />
    <path d="M315 189 L319 193" />
    <path d="M319 185 L315 189" />
    <path d="M315 175 L319 171" />
    <path d="M315 168 L308 175" />
    <path d="M301 175 L294 182" />
    <path d="M294 168 L301 161" />
    <path d="M294 161 L287 168" />
    <path d="M294 161 L301 154 L308 161 L301 168" />
    <path d="M308 168 L315 161" />
    <path d="M319 164 L315 168" />
    <path d="M319 157 L315 161" />
    <path d="M315 154 L319 150" />
    <path d="M315 147 L308 154 L315 161" />
    <path d="M308 147 L315 140 L319 144" />
    <path d="M319 136 L315 140" />
    <path d="M308 140 L301 147 L308 154" />
    <path d="M308 140 L315 133" />
    <path d="M319 129 L315 133" />
    <path d="M308 133 L301 126" />
    <path d="M301 119 L294 126" />
    <path d="M301 119 L308 126 L315 119 L319 123" />
    <path d="M315 126 L308 133 L301 140" />
    <path d="M294 147 L301 154" />
    <path d="M287 154 L294 161" />
    <path d="M308 119 L315 112" />
    <path d="M319 109 L315 105 L308 112 L301 119" />
    <path d="M301 105 L294 112" />
    <path d="M294 98 L287 105" />
    <path d="M308 105 L315 98 L319 102" />
    <path d="M319 95 L315 91 L308 98" />
    <path d="M308 91 L315 84" />
    <path d="M319 81 L315 77 L308 84 L301 77 L294 84" />
    <path d="M294 77 L301 70 L294 63 L287 70" />
    <path d="M301 70 L308 63 L301 56 L308 49 L315 42" />
    <path d="M319 45 L315 49 L308 56 L315 63 L308 70" />
    <path d="M301 70 L308 77" />
    <path d="M315 70 L308 77" />
    <path d="M315 70 L319 74" />
    <path d="M315 63 L319 67" />
    <path d="M319 59 L315 63" />
    <path d="M319 53 L315 49" />
    <path d="M315 35 L308 28" />
    <path d="M294 35 L287 42" />
    <path d="M273 42 L280 49" />
    <path d="M294 56 L287 63" />
    <path d="M294 56 L301 63" />
    <path d="M301 42 L308 49" />
    <path d="M319 87 L315 91" />
    <path d="M319 115 L315 119" />
    <path d="M273 84 L280 91" />
    <path d="M266 84 L273 91" />
    <path d="M266 77 L273 84" />
    <path d="M259 70 L266 77" />
    <path d="M217 63 L224 70" />
    <path d="M203 84 L210 91" />
    <path d="M196 84 L203 91" />
    <path d="M203 112 L210 119" />
    <path d="M217 154 L224 161" />
    <path d="M189 168 L196 175" />
    <path d="M196 196 L203 203" />
    <path d="M140 217 L147 224" />
    <path d="M133 217 L140 224" />
    <path d="M119 259 L126 266" />
    <path d="M112 259 L119 266" />
    <path d="M70 301 L63 308" />
    <path d="M35 245 L28 238" />
    <path d="M21 224 L28 231" />
    <path d="M14 259 L21 266" />
    <path d="M49 182 L42 189" />
    <path d="M56 175 L49 182" />
    <path d="M49 168 L42 161" />
    <path d="M35 168 L42 175" />
    <path d="M28 168 L35 175" />
    <path d="M14 168 L7 161" />
    <path d="M14 154 L7 161" />
    <path d="M42 126 L49 133" />
    <path d="M56 112 L63 105 L56 98 L49 91" />
    <path d="M49 98 L42 105" />
    <path d="M49 105 L56 112" />
    <path d="M63 112 L70 119" />
    <path d="M49 98 L56 105" />
    <path d="M42 84 L35 77" />
    <path d="M28 70 L35 77" />
    <path d="M42 84 L35 91" />
    <path d="M28 91 L35 98" />
    <path d="M21 70 L28 77" />
    <path d="M28 56 L35 63" />
    <path d="M35 35 L42 42" />
    <path d="M35 21 L28 28" />
    <path d="M28 7 L34 1" />
    <path d="M14 7 L8 1" />
    <path d="M57 1 L63 7" />
    <path d="M105 21 L112 28" />
    <path d="M112 14 L105 21" />
    <path d="M119 7 L125 1" />
    <path d="M133 7 L140 14" />
    <path d="M154 21 L161 28" />
    <path d="M161 21 L168 28" />
    <path d="M182 28 L189 21" />
    <path d="M182 14 L189 21" />
    <path d="M182 7 L189 14" />
    <path d="M196 7 L190 1" />
    <path d="M188 1 L182 7" />
    <path d="M174 1 L168 7" />
    <path d="M155 1 L161 7" />
    <path d="M153 1 L147 7" />
    <path d="M140 35 L147 42 L154 49" />
    <path d="M147 56 L154 63 L147 70" />
    <path d="M147 77 L154 84 L147 91" />
    <path d="M140 77 L147 84" />
    <path d="M161 84 L168 77" />
    <path d="M175 70 L168 77" />
    <path d="M182 70 L189 77" />
    <path d="M182 84 L189 91" />
    <path d="M161 105 L168 112" />
    <path d="M161 112 L168 119" />
    <path d="M161 133 L168 140" />
    <path d="M154 140 L161 147" />
    <path d="M140 133 L147 140" />
    <path d="M112 140 L119 147" />
    <path d="M77 175 L70 182" />
    <path d="M70 175 L63 182" />
    <path d="M70 189 L77 196" />
    <path d="M91 70 L84 63" />
    <path d="M84 56 L91 63" />
    <path d="M77 56 L84 63" />
    <path d="M112 63 L119 70" />
    <path d="M133 77 L140 84" />
    <path d="M105 42 L112 49" />
    <path d="M14 77 L7 70" />
    <path d="M204 1 L210 7" />
    <path d="M217 14 L224 21" />
    <path d="M224 7 L230 1" />
    <path d="M232 1 L238 7" />
    <path d="M245 7 L238 14" />
    <path d="M245 7 L251 1" />
    <path d="M252 7 L258 1" />
    <path d="M260 1 L266 7" />
    <path d="M267 1 L273 7" />
    <path d="M274 1 L280 7" />
  </g>
</svg>